<?xml version="1.0" encoding="UTF-8"?>
<svg id="Layer_2" xmlns="http://www.w3.org/2000/svg" viewBox="0 0 2104.8 216.08">
  <defs>
    <style>
      .cls-1 {
        opacity: .51;
      }

      .cls-1, .cls-2 {
        fill: #111827;
      }
    </style>
  </defs>
  <g id="Layer_1-2" data-name="Layer_1">
    <g>
      <path id="Background_Mountain" class="cls-1" d="M1412.28,193.31c.03-.09-35.56-12.12-35.56-12.12l-13.17-11.08-7.15,1.38-5.25-3.47-9.79-.69-17.29-1.73s-35.71,7.74-41.7-5.67c-6.02-13.39-24.57-30.49-24.57-30.49l-36.58-10.63-24.05-5.99-15.55-3.23-14.01,4.14-23.57-9.81-17.29,8.67-3.77.35-5.99,6.92-24.05,11.45-15.81-4.16-21.03-4.44s-1.13,2.35-4.89-5.95c-3.77-8.32-32.33-13.87-32.33-13.87l-6.02-8.32-10.89-2.07-21.06-28.42-9.4-7.29s-21.03,21.5-27.43,23.22c-6.38,1.75-16.16,13.52-23.67,22.53-7.53,9.01-13.53,15.94-13.53,15.94l-12.78,2.78-22.18,2.42-10.53-5.2h-10.89l-5.28,4.51h-10.53l-14.91,10.16-7.02-5.54-24.05,12.94-23.54-12.94-18.55,16.65h-19.03s-27.08,33.27-28.08,36.51-13.04-7.87-13.04-7.87l-23.05,15.72,748.84,4.72h0Z"/>
      <path id="Background_Mountain-2" data-name="Background_Mountain" class="cls-1" d="M1562.07,193.4c-11.39-3.2-22.77-6.41-34.16-9.61h0l-13.17-11.08-7.15,1.38-5.25-3.47-9.79-.69-17.29-1.73s-35.71,7.74-41.7-5.67c-6.02-13.39-24.57-30.49-24.57-30.49l-36.58-10.63-24.05-5.99-15.55-3.23-14.01,4.14-23.57-9.81-17.29,8.67-3.77.35-5.99,6.92-24.05,11.45-15.81-4.16-21.03-4.44s-1.13,2.35-4.89-5.95c-3.77-8.32-32.33-13.87-32.33-13.87l-6.02-8.32-10.89-2.07-21.06-28.42-9.4-7.29s-21.03,21.5-27.43,23.22c-6.38,1.75-16.16,13.52-23.67,22.53-7.53,9.01-13.53,15.94-13.53,15.94l-12.78,2.78-22.18,2.42-10.53-5.2h-10.89l-5.28,4.51h-10.53l-14.91,10.16-7.02-5.54-24.05,12.94-23.54-12.94-18.55,16.65h-19.03s-27.08,33.27-28.08,36.51-13.04-7.87-13.04-7.87l-23.05,15.72c249.15.74,498.29,1.47,747.44,2.21Z"/>
      <g>
        <polygon class="cls-2" points="865.07 144.52 866.14 141.75 865.79 139.83 860.33 141.16 860.66 142.54 865.07 144.52"/>
        <polygon class="cls-2" points="876.03 141.62 875.52 137.27 870.6 138.6 871.65 142.54 876.03 141.62"/>
        <polygon class="cls-2" points="888.12 133.63 888.12 137.37 894.14 136.55 893.68 131.89 888.12 133.63"/>
        <polygon class="cls-2" points="944.66 117.54 943.84 112.5 936.79 115.65 938.2 119.95 944.66 117.54"/>
        <polygon class="cls-2" points="951.78 113.78 952.32 108.53 946.45 111.29 948.09 115.01 951.78 113.78"/>
        <polygon class="cls-2" points="961.13 108.55 962.31 103.51 956.06 106.68 956.72 110.34 961.13 108.55"/>
        <polygon class="cls-2" points="969.92 103.74 969.04 99.97 964.36 102.48 965.23 106.22 969.92 103.74"/>
        <polygon class="cls-2" points="975.53 99.77 975.58 96.38 970.48 99.2 972.25 102.07 975.53 99.77"/>
        <polygon class="cls-2" points="982.93 95.1 982.11 92.67 976.91 95.64 977.73 98.41 982.93 95.1"/>
        <polygon class="cls-2" points="1017.66 71.77 1018.79 68.74 1013.77 72.36 1015.87 73.97 1017.66 71.77"/>
        <polygon class="cls-2" points="1009.01 76.99 1008.54 75.97 1003.32 79.48 1005.16 81.53 1009.01 76.99"/>
        <polygon class="cls-2" points="1002.42 82.88 1001.94 80.37 997.61 83.19 998.86 85.09 1002.42 82.88"/>
        <polygon class="cls-2" points="996.25 88.37 995.97 85.22 995.94 84.24 990.82 87.44 991.87 91.39 996.25 88.37"/>
        <polygon class="cls-2" points="987.62 94.82 987.87 91.26 987.87 89.26 983.75 91.72 986.23 94 987.62 94.82"/>
        <path class="cls-2" d="M2080.52,188.59c-3.29-.93-6.58-1.85-9.88-2.78l-13.17-11.08-7.15,1.38-5.25-3.47-9.79-.69-17.29-1.73s-35.71,7.74-41.7-5.67c-6.02-13.39-24.57-30.49-24.57-30.49l-36.58-10.63-24.05-5.99-15.55-3.23-14.01,4.14-23.57-9.81-17.29,8.67-3.77.35-5.99,6.92-24.05,11.45-15.81-4.16-21.03-4.44s-1.13,2.35-4.89-5.95c-3.77-8.32-32.33-13.87-32.33-13.87l-6.02-8.32-10.89-2.07-21.06-28.42-9.4-7.29s-21.03,21.5-27.43,23.22c-6.38,1.75-16.16,13.52-23.67,22.53-7.53,9.01-13.53,15.94-13.53,15.94l-12.78,2.78-22.18,2.42-10.53-5.2h-10.89l-5.28,4.51h-10.53l-14.91,10.16-7.02-5.54-7.17,3.85v-3.03l14.08-5.53-17.51-7.76v-2.69l12.24-4.38-14.73-6.7v-2.08l8.71-3.52-10.93-4.8v-1.59l5.58-2.26-6.45-3.06.82-1.02h-1.68c-.27-.27-.88-.99-.74-1.97.21-1.53-.54-1.97-1.06-2.09l-.43-3.33-.43,3.33c-.51.12-1.27.56-1.06,2.09.14.99-.47,1.7-.74,1.97h-1.68l.82,1.02-6.45,3.06,5.58,2.26v1.59l-10.93,4.8,8.71,3.52v2.08l-14.73,6.7,12.24,4.38v2.69l-17.51,7.76,14.08,5.53v3.15l-5.13,2.14-11.12-6.11-18.55,16.65h-19.03s-2.58,3.17-6.17,7.64h-1.09v1.36c-1.15,1.44-2.38,2.98-3.65,4.57l-6.38-.49v-7.45h-4.59v7.17l-10.89-.96v-7.84h-3.92v7.36l-12.38-1.15v-8.17l-4.44.14v7.22l-9.46-.19v-14.67l-21.45-3.87-.19-2.72,1.05-.05-3.39-9.56-.1-1.86h1.24l-1.91-2.82-1.43,2.77h1.05v2.1l-3.49,9.27h.78v2.91l-13.76,5.48-10.58-.8-6.5,2.87v8.25l-4.01,1.08.13-6.18h-5.73l.19,7.71-3.5,1.21-.06-5.86h-4.59l-.06,7.01-2.36.7.06-5.54h-4.65v6.94l-2.64,1.08v-6.05l-4.08.35v7.2l-1.69.54.1-5.67h-4.3v6.53l-1.53.35v-4.68h-3.89v1.75l-4.2-.53-3.06,1.29v20.83l-5.14-112.1c.62-.08,1.67-.31,2.75-1.01.7-.46,1.61-1.05,2.03-2.19.35-.94.27-1.97-.08-2.84h0c.03-1.12.07-2.23.1-3.34v-.09s-.05-.08-.05-.08c-.4-.52-.85-.99-1.33-1.4-.19-.16-.36-.29-.52-.41-.34-.25-.71-.48-1.1-.69-.38-.2-.77-.37-1.17-.52-.12-.97-.91-1.52-.96-1.55.04-.25.08-.6.06-1.02-.01-.31-.03-.65-.16-1.02-.08-.24-.28-.68-.77-1.12-.15-.47-.36-.97-.64-1.48-1.51-2.69-4.21-3.78-5.39-4.16-.05-.24-.11-.48-.16-.72.07-.11.32-.53.24-1.09-.1-.68-.61-1.04-.69-1.09-.02-.37-.03-.73-.05-1.1-.12-2.39-.25-4.76-.4-7.12,0,.22,0,.43,0,.65,0-.22,0-.43,0-.65-.15,2.36-.28,4.73-.4,7.12-.02.37-.04.73-.05,1.1-.08.06-.6.41-.69,1.09-.08.56.17.98.24,1.09-.05.24-.11.48-.16.72-1.18.39-3.88,1.47-5.39,4.16-.28.51-.49,1.01-.64,1.48-.49.44-.68.88-.77,1.12-.13.38-.14.71-.16,1.02-.02.42.02.77.06,1.02-.04.03-.83.58-.96,1.55-.4.14-.79.32-1.17.52-.39.2-.76.44-1.1.69-.16.12-.33.25-.52.41-.49.41-.93.88-1.33,1.4l-.05.08v.09c.03,1.11.07,2.22.1,3.33h0c-.35.87-.43,1.9-.08,2.84.42,1.14,1.33,1.73,2.03,2.19,1.08.7,2.13.93,2.75,1.01l-4.63,100.96h-5.75v-12.08h-7.16v-9.39h-8.26v-7.48h-11.58l.29-17.7h1.36l.43-4.8h3.44l1.29-3.51h-3.37l4.08-4.23h5.73l9.81-9.77-27.41-12.61-.86-1.72,5.35-2.77,4.97.48,7.83-13.09-22.35-10.22.1-1.62,5.92.48,5.92-15.09-15.67-5.54-.29-.96,5.25.38,3.73-13.66-13.76-3.92-.47-1.43h3.72l3.82-12.04-10.13-.48v-2.29c-1.1.38-1.64.18-1.91,0-.6-.4-.57-1.16-1.25-3.75-.12-.44-.22-.8-.28-1.03-.1-.01-.19-.02-.29-.03-.04-.11-.07-.21-.11-.32.1,0,.19,0,.29.01-.47-1.38-.93-2.77-1.4-4.15-.47,1.38-.93,2.77-1.4,4.15.1,0,.19,0,.29-.01-.04.11-.07.21-.11.32-.1.01-.19.02-.29.03-.06.22-.16.58-.28,1.03-.68,2.59-.65,3.35-1.25,3.75-.27.18-.81.38-1.91,0v2.29l-10.13.48,3.82,12.04h3.72l-.47,1.43-13.76,3.92,3.73,13.66,5.25-.38-.29.96-15.67,5.54,5.92,15.09,5.92-.48.1,1.62-22.35,10.22,7.83,13.09,4.97-.48,5.35,2.77-.86,1.72-27.41,12.61,5.43,5.41c-1.25-.4-2.48-.81-3.71-1.24l-.39-.13c-.49-.16-.99-.33-1.48-.51-3-1.03-5.46-1.92-7.73-2.82-.67-.23-1.36-.5-2.19-.84-2.27-.87-4.18-1.64-6.04-2.43-.74-.31-1.53-.64-2.31-.97-1.46-.61-2.95-1.28-4.39-1.93l-.88-.4c-.38-.17-.74-.34-1.11-.51-1.77-.82-3.56-1.66-5.37-2.53l-.19-.09c-.68-.33-1.36-.66-2.04-1.01-2.23-1.09-4.58-2.3-7.4-3.81-.48-.26-.97-.51-1.46-.79-.77-.4-1.53-.82-2.29-1.24l-.9-.5c-.2-.11-.39-.22-.59-.33-.29-.16-.57-.32-.86-.5-.67-.35-1.3-.72-1.94-1.1l-1.39-.82c-1.15-.68-2.29-1.34-3.41-2.02-.37-.24-.71-.44-1.03-.62-1.25-.78-2.47-1.54-3.68-2.31l-2.24-1.43c-1.08-.69-2.14-1.4-3.18-2.1l-.58-.39c-.35-.23-.69-.47-1.03-.7-.35-.24-.69-.48-1.04-.71-.65-.44-1.3-.9-1.94-1.34l-1.47-1.04c-.25-.18-.49-.35-.76-.57-1.17-.8-2.28-1.6-3.5-2.5-1.75-1.27-3.36-2.51-4.58-3.45-1.6-1.2-3.15-2.43-4.45-3.48-.96-.76-1.9-1.52-2.83-2.28l-.03-.03-.37.52c.94.76,1.88,1.52,2.84,2.28.05.04.11.09.16.13l-.39,3.67,3.15,4.25,1.63-4.5c1.19.93,2.75,2.12,4.45,3.36l-3.62,3.07,4.12,2.48,3.02-3.02s.02.01.03.02c.26.21.51.39.77.57l.48.34-1,3.19,2.05.95,1.86-2.11s.02.02.04.03c.35.23.69.47,1.03.7.35.24.69.48,1.04.71l.09.06-.76,2.95,3.28,2.48,1.21-2.98,1.19.76-.35,3.7,3.84,2.07,1.23-2.8c.32.17.64.37.99.59.04.02.08.05.12.07l-.54,3.65s3.3,1.77,3.71,1.92c.19,0,.68-1.42,1.16-3.02l.37.21c.65.38,1.29.75,1.94,1.1.08.05.17.1.26.15l1.06,4.98h2.89l.52-2.52c.46.26.92.51,1.38.75.05.03.1.05.15.08v4.15l8.66,3.02-1.11-3.28c.59.3,1.17.59,1.76.87l.19.09c.17.08.32.15.49.23l2.24,3.32,3.15,1.49-.31-2.42c.31.15.62.29.94.43l.89.4c.05.02.1.05.15.07l1.36,2.65,3.02.69v-1.42c.73.32,1.48.63,2.18.92.12.05.25.1.37.15l2.11,3.91s.28-.69,1.92,0c.66.28,1.21-.54,1.65-1.62.83.34,1.54.61,2.2.85.08.03.16.06.24.09l1.67,5.22h5.23l.64-2.48c.48.18.98.34,1.46.5l.38.13s.09.03.14.05l.25,2.62,4.82,1.38.25-1.89,2.85,2.83h.31l.69,1.52,3.3.9.77-2.41h.65l2.79,2.88-.36.84h1.17l.49.51h-3.37l1.29,3.51h3.44l.43,4.8h1.36l.29,17.7h-11.58v7.48h-8.26v9.39h-7.16v12.08h-7.6v12.08h-4.66c-.13-4.78-.26-9.55-.39-14.33-.2-.02-.4-.04-.61-.07-.09-1.73-.18-3.46-.26-5.2-3.27-1.08-7.15-2.11-11.57-2.8-3.14-.49-6.06-.73-8.68-.82l-.18-6.82c-.53-.42-1.44-1.09-2.68-1.72-1.03-.53-3.11-1.45-10.09-2.19-1.02-.11-2.51-.25-4.34-.37v-17.45c.13-.07.63-.37.79-.95.19-.69-.19-1.5-.95-1.94-.01-3.02-.03-6.03-.04-9.05.21-.16.82-.66.98-1.51.19-1.05-.41-2.2-1.53-2.82-1.51-3.59-4.13-8.65-8.65-13.74-3.67-4.13-7.43-6.96-10.36-8.83-.03-.62-.05-1.23-.08-1.85.18-.03.37-.05.55-.08-.05-2.82-.11-5.64-.16-8.47-.04-1.63-.07-3.25-.11-4.88-.71.56-1.42,1.13-2.14,1.69l-.22-2.85c-1.41-.62-2.82-1.25-4.23-1.87.04-.05.11-.14.14-.28.04-.18-.01-.32-.03-.38-.68-.55-1.35-1.09-2.03-1.64.02-.02.16-.2.11-.42-.04-.19-.2-.33-.4-.37.06-.04.28-.17.37-.45.09-.29,0-.62-.24-.84.05-.05.17-.2.16-.4,0-.27-.24-.53-.59-.61.02-.02.18-.26.07-.54-.08-.21-.28-.36-.52-.38.03-.05.12-.22.07-.42-.05-.23-.26-.4-.51-.45.04-.07.16-.3.12-.59-.07-.44-.45-.64-.49-.67,0-.51-.01-1.02-.02-1.52.09-.03,1.19-.41,1.42-1.36.24-.98-.51-2.22-1.9-2.57-.4-.8-.35-1.22-.2-1.44.11-.16.29-.27.28-.44-.02-.18-.27-.31-.49-.4,0-.24.01-.47.02-.71.05-.02.56-.27.63-.75.08-.5-.33-1.08-1-1.23-.26-.76-.52-1.53-.78-2.29,0-.02,0-.04,0-.06,0,.01,0,.02-.01.03,0-.01,0-.02-.01-.03,0,.02,0,.04,0,.06-.26.76-.52,1.53-.78,2.29-.68.15-1.08.72-1,1.23.08.49.58.73.63.75,0,.24.01.47.02.71-.22.08-.48.21-.49.4,0,.03,0,.06.02.09-.4.3-.79.61-1.21.91-2.5,1.91-4.78,3.6-6.99,5.19-.73.53-1.46,1.05-2.2,1.58-.94.67-1.88,1.35-2.82,2.03-.74.51-1.49,1.03-2.24,1.56-.99.69-1.98,1.38-2.98,2.06-1.43.99-2.88,1.95-4.35,2.93l-.87.58c-.46.31-.91.61-1.38.89-1.43.95-2.87,1.89-4.33,2.82-.53.36-1.09.71-1.66,1.05-1.62,1.06-3.21,2.03-5.12,3.2-.74.47-1.48.92-2.24,1.39l-.64.39h-.06s-.06.07-.06.07c-.68.41-1.35.81-2.03,1.21-.68.4-1.36.81-2.03,1.21l-1.64.95c-1.54.91-3.14,1.82-5.2,2.97-.43.26-.89.51-1.33.74-1.68.95-3.34,1.86-5,2.76l-.1.06c-.48.28-.96.53-1.43.76-1.56.85-3.12,1.69-4.67,2.5-.35.17-.69.34-1.03.52-.34.17-.67.35-1.03.52-1.97,1.03-4.02,2.07-6.25,3.17-.72.37-1.43.71-2.14,1.06-.54.26-1.07.52-1.6.78-1.97.95-3.91,1.87-5.92,2.79-.85.4-1.7.8-2.56,1.18-2.25,1.05-4.62,2.11-7.04,3.15-1.08.49-2.15.95-3.22,1.41-.97.41-1.92.8-2.88,1.2l3.03-7.11c.18-.19,1.19-1.25,1.17-2.89-.01-1.14-.51-1.94-.72-2.24.02.38,0,.94-.22,1.56-.53,1.5-1.81,2.13-2.12,2.28.19-.2.62-.71.8-1.5.16-.7.05-1.29-.02-1.56-.26.4-.65.91-1.19,1.41-.57.52-1.12.85-1.54,1.07l-16.91.59c-.57-.38-1.15-.77-1.72-1.15.14-.31.33-.84.34-1.52,0-.39-.05-.73-.11-.98-.02.11-.08.38-.29.61-.13.14-.27.21-.36.25l-1.05.11v-.69c-.39-1.14-.77-2.33-1.14-3.57-.6-2.03-1.09-3.98-1.5-5.83-.16,1.73-.48,3.77-1.12,6.01-.38,1.3-.8,2.47-1.24,3.51h.18v.83h-1l.03-.68c.11-.11.22-.22.33-.32-.37-1.31-.74-2.67-1.09-4.06-.53-2.08-.99-4.1-1.39-6.06-.47,1.99-.97,4.01-1.51,6.06-.36,1.37-.72,2.72-1.09,4.06.11.11.22.22.33.32l.03.68h-1v-.83h.18c-.44-1.04-.86-2.21-1.24-3.51-.65-2.24-.97-4.29-1.12-6.01-.41,1.85-.9,3.8-1.5,5.83-.37,1.24-.75,2.43-1.14,3.57v.69l-1.05-.11c-.09-.04-.23-.11-.36-.25-.22-.23-.28-.5-.29-.61-.06.25-.12.59-.11.98.01.68.2,1.21.34,1.52-.57.38-1.15.77-1.72,1.15l-16.91-.59c-.42-.22-.98-.55-1.54-1.07-.55-.5-.93-1.01-1.19-1.41-.07.28-.18.86-.02,1.56.18.8.61,1.3.8,1.5-.31-.15-1.59-.78-2.12-2.28-.22-.61-.24-1.17-.22-1.56-.21.3-.7,1.11-.72,2.24-.02,1.64.98,2.7,1.17,2.89,1.53,3.58,3.05,7.16,4.58,10.74l4.74.53,2.79,5.55-.14,7.53c-.71.2-1.42.41-2.13.61-1.49.44-2.83.82-4.09,1.15-1.27.35-2.52.69-3.76,1.02l-2.22.58c-1.26.32-2.51.64-3.75.96-1.42.36-2.82.7-4.21,1.03-.41.1-.83.2-1.24.3-.17.04-.43.1-.75.17-.3.07-.52.12-.59.14-.69.16-1.37.32-2.08.46,0,0-.56.13-1.68.4-1.38.33-13.26,3.3-29.53,7.37-.16-2.77-.31-5.54-.47-8.3,2.32-2.15,4.64-4.3,6.96-6.46-.15-1.57-.3-3.14-.44-4.71.12-.02.23-.04.35-.06-.03-.53-.06-1.05-.09-1.58-1.67.02-3.33.04-5,.06-.1-.18-.25-.4-.47-.6-.7-.61-1.58-.56-1.8-.54v-3.45c-.86-.01-1.73-.02-2.59-.03.03-1.21.06-2.43.09-3.64-.78-.01-1.56-.02-2.34-.03.01-1.17.02-2.34.03-3.51-.84-.04-1.69-.08-2.53-.13-.03-1.04-.06-2.08-.08-3.12-1.32-.06-2.64-.11-3.97-.17.64-1.86,1.53-4.63,2.45-8.06,1.38-5.19,1.28-6.16,1.17-6.7-.99-4.9-8.92-7.09-11.3-7.67-.05-1.59-.11-3.19-.16-4.78-.25-.11-.51-.21-.76-.32-.97-4.7-1.94-9.41-2.91-14.11.99.67,1.33.68,1.46.57.25-.22-.24-.98.13-1.46.17-.22.45-.29.63-.32-.62-1.49-1.24-2.98-1.86-4.47.66-.9.83-1.96.4-2.69-.03-.06-.5-.83-1.14-.82-.39,0-.55.3-.89.25-.38-.05-.65-.49-.82-.89.14-.68.24-1.54.19-2.53-.12-2.15-.93-3.77-1.48-4.68,0-.02,0-.05,0-.07,0,0-.01.03-.02.03,0,0-.01-.03-.02-.03,0,.02,0,.05,0,.07-.55.9-1.36,2.52-1.48,4.68-.05.99.05,1.85.19,2.53-.17.4-.44.84-.82.89-.34.04-.5-.25-.89-.25-.64,0-1.1.76-1.14.82-.43.73-.26,1.78.4,2.69-.62,1.49-1.24,2.98-1.86,4.47.18.02.46.09.63.32.36.48-.12,1.24.13,1.46.13.11.47.1,1.46-.57-.97,4.7-1.94,9.41-2.91,14.11-.25.11-.51.21-.76.32-.05,1.59-.11,3.19-.16,4.78-2.38.59-10.3,2.78-11.3,7.67-.11.55-.22,1.52,1.17,6.7.91,3.43,1.81,6.2,2.45,8.06-1.32.06-2.64.11-3.97.17-.03,1.04-.06,2.08-.08,3.12-.84.04-1.69.08-2.53.13.01,1.17.02,2.34.03,3.51-.78.01-1.56.02-2.34.03.03,1.21.06,2.43.09,3.64-.86.01-1.73.02-2.59.03v3.45c-.22-.02-1.11-.07-1.8.54-.23.2-.38.42-.47.6-1.67-.02-3.33-.04-5-.06-.03.53-.06,1.05-.09,1.58.12.02.23.04.35.06-.15,1.57-.3,3.14-.44,4.71,2.32,2.15,4.64,4.3,6.96,6.46-.25,4.45-.51,8.9-.76,13.35-.46.13-1.3.43-2.06,1.17-.37.37-.62.74-.79,1.04h-3.1c-.01.72-.02,1.43-.03,2.15-1.17-.01-2.34-.02-3.51-.03-.01.69-.02,1.37-.03,2.06-2.77-.04-5.55-.08-8.32-.13-.06,3.11-.11,6.22-.17,9.32-1.3.02-2.61.05-3.91.07.04.99.08,1.98.13,2.97.33-.02.65-.04.98-.06.33.44.81.99,1.5,1.49.33.24.66.44.95.59-.3,4.69-.6,9.39-.9,14.08h-2.66l-23.05-15.72s-.13.12-.36.33v-7.62l23.42-6.24-32.99-14.1v-11.15l21.29-5.17-32.84-14.91v-9.38l18.49-4.49-27.59-12.26h-1.5v-2.55h.1c.38,0,.69-.31.69-.69s-.31-.69-.69-.69h-.03c1.73-1.01-.9-5.45-.9-5.45,0,0-2.63,4.44-.9,5.45h-.03c-.38,0-.69.31-.69.69s.31.69.69.69h.1v2.55h-5.34v-2.55h.1c.38,0,.69-.31.69-.69s-.31-.69-.69-.69h-.03c1.73-1.01-.9-5.45-.9-5.45,0,0-2.63,4.44-.9,5.45h-.03c-.38,0-.69.31-.69.69s.31.69.69.69h.09v2.55h-5.34v-2.55h.1c.38,0,.69-.31.69-.69s-.31-.69-.69-.69h-.03c1.73-1.01-.9-5.45-.9-5.45,0,0-2.63,4.44-.9,5.45h-.03c-.38,0-.69.31-.69.69s.31.69.69.69h.1v2.55h-5.34v-2.55h.1c.38,0,.69-.31.69-.69s-.31-.69-.69-.69h-.03c1.73-1.01-.9-5.45-.9-5.45,0,0-2.63,4.44-.9,5.45h-.03c-.38,0-.69.31-.69.69s.31.69.69.69h.09v2.55h-5.34v-2.55h.1c.38,0,.69-.31.69-.69s-.31-.69-.69-.69h-.03c1.73-1.01-.9-5.45-.9-5.45,0,0-2.63,4.44-.9,5.45h-.03c-.38,0-.69.31-.69.69s.31.69.69.69h.1v2.55h-5.34v-2.55h.1c.38,0,.69-.31.69-.69s-.31-.69-.69-.69h-.03c1.73-1.01-.9-5.45-.9-5.45,0,0-2.63,4.44-.9,5.45h-.03c-.38,0-.69.31-.69.69s.31.69.69.69h.09v2.55h-1.5l-27.59,12.26,18.49,4.49v9.38l-32.85,14.91,21.29,5.17v.23l-11.3,6.21-24.05-12.94-7.02,5.54-14.91-10.16h-10.53l-5.28-4.51h-10.89l-10.53,5.2-22.18-2.42-12.78-2.78s-5.99-6.92-13.53-15.94c-7.51-9.01-17.29-20.79-23.67-22.53-6.4-1.73-27.43-23.22-27.43-23.22l-9.4,7.29-21.06,28.42-10.89,2.07-6.02,8.32s-28.56,5.54-32.33,13.87c-3.77,8.3-4.89,5.95-4.89,5.95l-21.03,4.44-15.81,4.16-24.05-11.45-5.99-6.92-3.77-.35-17.29-8.67-23.57,9.81-14.01-4.14-15.55,3.23-24.05,5.99-36.58,10.63s-18.55,17.1-24.57,30.49c-5.99,13.41-41.7,5.67-41.7,5.67l-17.29,1.73-9.79.69-5.25,3.47-7.15-1.38-13.17,11.08s-11.81,3.99-21.82,7.4H0v27.49h2104.8v-27.49h-24.28ZM1248.33,63.13c.29.28.57.58.82.9-.02.81-.05,1.61-.07,2.41-.04-.05-.07-.1-.11-.15-.19-.23-.42-.43-.73-.63l.1-2.54ZM1246.76,61.94c.24.14.47.29.69.45.13.09.26.19.4.31l-.11,2.68c-.3-.17-.65-.35-1.08-.57l.1-2.87ZM1224.13,66.3s-.08.1-.11.15c-.03-.8-.05-1.61-.07-2.41.25-.32.53-.63.82-.9l.1,2.54c-.31.2-.54.4-.73.63ZM1225.35,65.38l-.11-2.68c.14-.12.27-.22.4-.31.22-.16.45-.31.69-.45l.1,2.87c-.43.22-.78.4-1.08.57ZM659.67,138.88l-2.35-2.11h2.35v2.11ZM715.08,169.71h6.22v7.01c-.68.55-1.39,1.1-2.1,1.62h-4.12v-8.63ZM708.91,136.77h4.43v6.15h-4.43v-6.15ZM711.28,169.71v8.58c-1.38-2.02-3.62-5.01-6.22-8.39v-.18h6.22ZM704.39,136.77v6.15h-4.43v-6.15h4.43ZM698.53,106.54h4.17v5.79h-4.17v-5.79ZM695.45,136.77v6.15h-4.43v-6.15h4.43ZM690.11,106.54h4.17v5.79h-4.17v-5.79ZM686.5,142.92h-4.43v-6.15h4.43v6.15ZM681.69,106.54h4.17v5.79h-4.17v-5.79ZM673.26,106.54h4.17v5.79h-4.17v-5.79ZM673.13,136.77h4.43v6.15h-4.43v-6.15ZM664.84,106.54h4.17v5.79h-4.17v-5.79ZM664.19,136.77h4.43v6.15h-4.43v-6.15ZM656.42,106.54h4.17v5.79h-4.17v-5.79ZM648,106.54h4.17v5.79h-4.17v-5.79ZM897.63,131.16l.92-.02v3.9l.92-.37c-.04.29-.08.58-.12.87-.57.15-1.01.38-1.3.55-.54.33-1.15.7-1.38,1.42-.11.34-.11.66-.08.86-.31.22-.46.61-.38.97.11.49.56.66.59.66-.05.52-.12,1.08-.23,1.68-.16.84-.35,1.6-.57,2.26-.31.43-.61.86-.92,1.28-.31.18-.75.46-1.21.89-.67.62-1.1,1.01-1.15,1.51-.13,1.27,2.17,2.4,2.32,2.47.24.12.95.43,3.14.63,1.28.12,2.34.13,3.07.12-.05,1.28-.09,2.56-.14,3.84.04.22.2.38.38.38.22.01.44-.21.42-.5v-3.73c.78.02,1.88.01,3.19-.1,2.17-.19,2.88-.51,3.14-.63.15-.07,2.45-1.2,2.32-2.47-.05-.51-.48-.9-1.15-1.51-.47-.43-.9-.71-1.21-.89-.31-.43-.61-.86-.92-1.28-.21-.66-.41-1.41-.57-2.26-.11-.6-.18-1.16-.23-1.68.02,0,.48-.18.59-.66.08-.36-.07-.75-.38-.97.02-.21.03-.52-.08-.86-.24-.72-.84-1.09-1.38-1.42-.29-.17-.72-.4-1.3-.55-.04-.29-.08-.59-.13-.89.25.02.49-.11.61-.33.14-.27.07-.65-.19-.86-.15-.17-.29-.35-.44-.52l.94-.38-.19-1.42c.37,0,.74.01,1.11.02.42-.04.72-.3.73-.53,0-.26-.35-.61-.9-.58.06-.45.1-1.3-.21-2.27.8-.28,1.61-.56,2.42-.85l1.74-.62c1.02-.37,2.05-.75,3.08-1.13,0,.07.01.15.02.22l-3.21,1.18,2.28,3.23,3.86-1.59v28.97c-4.73.08-9.47.16-14.2.24l-13.42-.24v-23.71l.39-.12c1.33-.41,2.67-.83,4.01-1.25l1.55-.49c1.04-.33,2.08-.67,3.13-1.02,0,0,0,.02,0,.03,0,.23.31.49.73.53ZM933.84,157.25h-1.6v-.52c.06-.05.13-.1.19-.15l1.67-1.27-.26,1.94ZM915.45,127.74l-.11-.42s.08-.03.11-.04v.46ZM946.7,165.63v-8.38h-11.53l3.44-2.92-.29-2.32s.1-.08.15-.12c.47-.36.94-.74,1.39-1.1l.05-.04.34,2.62,3.2-2.15v-3.32s.09-.08.14-.11c.07-.03.12-.09.19-.14l.57-.46c.35-.28.69-.56,1.03-.85l.33,3.97,2.79-3.41-.2-2.94c.06-.05.12-.1.18-.15l2.49-2.07v2.79l3.41-1.43v-4.24c.07-.06.14-.12.21-.18.96-.81,1.91-1.62,2.84-2.44v3.45l3.71-3.15-.48-3.11.15-.13c1.47-1.3,2.92-2.59,4.37-3.89l1.31,4.65,4.38-5.35-1.26-3.34s.06-.06.09-.08c1.3-1.18,2.62-2.4,3.91-3.62v2.79s3.71-3.28,3.56-3.69c-.07-.16-.22-1.07-.38-2.12.05-.05.11-.1.16-.15,1.32-1.25,2.66-2.54,3.98-3.83,0,.8,0,1.47-.05,1.7-.13.82,2.61.15,2.74-.26.15-.44,2.18-2.36,1.23-3.59-.21-.27-.42-.66-.62-1.1,0,0,0,0,.01-.01l.07-.07c1.17-1.14,2.31-2.28,3.47-3.47l.25,2.89,6.43-4.25-1.77-3.64s.06-.06.08-.08c1.81-1.86,3.4-3.53,4.85-5.1.67,2.19,1.5,4.58,1.79,4.39.56-.38,4-5.33,4-5.33l-1.97-3.1s.05-.05.07-.08c1.75-1.91,3.4-3.71,5.03-5.57.02-.02.03-.04.05-.06.68.38,1.2.75,1.2.99,0,.69,6.99-5.07,6.99-5.07l-2.67-2.16c1.69-1.94,3.09-3.56,4.5-5.24,0,0,.01-.01.02-.02l3.15,2.3c-.47.21-.94.41-1.41.62-.07.95-.15,1.9-.22,2.85-.71-.56-1.42-1.13-2.14-1.69l-.11,4.88c-.05,2.82-.11,5.64-.16,8.47.18.03.37.05.55.08-.03.62-.05,1.23-.08,1.85-2.93,1.87-6.69,4.7-10.36,8.83-4.52,5.09-7.14,10.15-8.65,13.74-1.12.62-1.72,1.76-1.53,2.82.15.84.77,1.35.98,1.51l-.04,9.05c-.76.44-1.14,1.25-.95,1.94.16.58.66.88.79.95v17.45c-1.82.12-3.32.26-4.34.37-6.97.74-9.06,1.66-10.09,2.19-1.24.63-2.15,1.3-2.68,1.72-.06,2.27-.12,4.55-.18,6.82-2.62.09-5.54.33-8.68.82-4.42.69-8.31,1.72-11.57,2.8-.09,1.73-.18,3.46-.26,5.2-.2.02-.4.04-.61.07-.08,2.9-.16,5.79-.24,8.69v-2.85h-3.66v-12.26h-7.43ZM1024.14,67.38l2.03,1.64.2-.12c0,.05,0,.1,0,.16-.04.02-.43.23-.49.67-.05.29.08.52.12.59-.26.04-.46.22-.51.45-.05.2.04.37.07.42-.24.02-.44.17-.52.38-.1.28.06.52.07.54-.35.07-.58.34-.59.61,0,.2.12.34.16.4-.15.15-.24.34-.26.53l-3.66-2.13,1.11-1.33c.77-.94,1.54-1.87,2.28-2.8ZM1024.52,75.2c-.15.12-.3.24-.45.36l.37-.48c.03.07.07.11.07.12ZM1022.59,77.49h-.02s.02-.01.02-.01c0,0,0,0,0,.01ZM1244.5,62.85c.08-.05.84-.58.97-1.54.27.1.54.22.8.35l-.1,2.89c-.67-.33-1.24-.57-1.67-.74v-.96ZM1226.92,64.56l-.1-2.89c.26-.13.53-.25.8-.35.12.97.88,1.49.97,1.54v.96c-.42.17-1,.41-1.67.74ZM933.69,116.78c1.08-.46,2.16-.93,3.23-1.41,2.43-1.04,4.8-2.1,7.05-3.15.85-.38,1.71-.78,2.62-1.21,1.95-.9,3.9-1.82,5.87-2.77.53-.26,1.06-.52,1.59-.78.71-.35,1.43-.7,2.15-1.06,2.23-1.11,4.28-2.15,6.25-3.18.35-.17.69-.34,1.03-.52.34-.17.67-.35,1.03-.52,1.56-.82,3.13-1.66,4.68-2.5.47-.24.96-.5,1.45-.78l.09-.05c1.66-.91,3.32-1.81,5-2.77.44-.23.91-.49,1.34-.75,2.06-1.15,3.66-2.07,5.2-2.97l1.64-.95c.68-.41,1.36-.81,2.04-1.22.66-.39,1.32-.78,1.98-1.18l.82-.5c.76-.46,1.5-.92,2.24-1.39,1.91-1.17,3.51-2.15,5.12-3.2.57-.34,1.14-.7,1.67-1.05,1.46-.92,2.9-1.87,4.32-2.82.47-.28.93-.59,1.39-.9l.87-.58c1.47-.98,2.92-1.95,4.36-2.93,1-.68,2-1.38,2.99-2.06.75-.52,1.5-1.04,2.25-1.56.95-.69,1.89-1.36,2.82-2.03.73-.53,1.47-1.05,2.2-1.58,2.21-1.59,4.5-3.29,6.99-5.2.4-.29.78-.59,1.17-.88.02.07.02.16.02.25-.32.4-.64.8-.97,1.21,0,0,0,0-.01.01l-.4-.28-1.15,2.22c-.05.07-.1.13-.16.19l-.83,1.03c-.74.93-1.5,1.86-2.28,2.79l-2.37,2.86c-.95,1.13-1.9,2.27-2.88,3.41-1.41,1.68-2.81,3.3-4.5,5.25-1.6,1.82-3.58,4.09-5.56,6.28-1.63,1.86-3.28,3.66-5.04,5.58-1.3,1.41-2.53,2.71-3.74,3.97-1.49,1.6-3.11,3.31-4.97,5.22-1.29,1.35-2.99,3.12-4.79,4.89-1.23,1.26-2.43,2.46-3.66,3.66l-.07.07c-1,1-2.03,2.03-3.08,3.03-1.39,1.36-2.8,2.72-4.2,4.05-.69.68-1.4,1.34-2.11,2.01l-1.02.96c-1.36,1.28-2.75,2.57-4.12,3.81-1.46,1.36-2.92,2.69-4.4,4.02-1.48,1.33-2.97,2.66-4.48,4l-.32.28c-.94.83-1.89,1.65-2.85,2.48-1,.87-2.02,1.74-3.05,2.61-1.01.87-2.02,1.73-3.05,2.59l-3.04,2.53c-.94.79-1.92,1.59-2.92,2.39-.4.35-.79.67-1.19.99l-.51.43c-.07.04-.12.09-.19.14-1.2.97-2.38,1.92-3.58,2.87l-.2.16c-.45.36-.91.73-1.38,1.09-1.36,1.07-2.74,2.15-4.12,3.22l-1.93,1.47c-.49.39-1,.78-1.52,1.17h-8.48l-.56-30.15.71-1.41,2.85-.95.16-3.29,3.14-.35.67,1.19,5.23.26-.67-5.48-3.49,1.46c.04-.09.08-.19.12-.28,1.16-.48,2.31-.96,3.49-1.46ZM902.72,122.02c1.47-.02,2.94-.04,4.41-.06.16.19.39.43.68.65.29.22.57.37.8.47.65-.02,1.3-.04,1.95-.06.21,0,.53,0,.87.16.77.34,1.08,1.07,1.16,1.27-1.13.42-2.27.84-3.39,1.25l-1.73.62c-.82.29-1.63.58-2.44.86-.21-.44-.45-.79-.65-1.03.02-.31.02-.95-.31-1.62-.62-1.23-1.85-1.53-2.04-1.57l.7-.94ZM888.88,127.35c.69-.19,1.01-.79,1.06-.9.14-.06.41-.22.61-.54.39-.63.14-1.36.11-1.44.07-.19.39-.94,1.17-1.28.35-.15.66-.17.87-.16.65.02,1.3.04,1.95.06.23-.1.5-.25.8-.47.3-.22.52-.46.68-.65,1.47.02,2.94.04,4.41.06l.7.94c-.19.04-1.43.34-2.04,1.57-.33.66-.33,1.3-.31,1.62-.25.31-.58.77-.82,1.42-.3.81-.34,1.56-.31,2.07l-.57.19c-1.21.4-2.41.79-3.6,1.17l-1.55.49c-1.34.43-2.67.85-4.01,1.25l-.21.06v-5.53c.14.06.56.21,1.06.07ZM844.28,174.51c.3-.15.62-.34.95-.59.68-.5,1.17-1.04,1.5-1.49.33.02.65.04.98.06.04-.99.08-1.98.13-2.97-1.3-.02-2.61-.05-3.91-.07-.06-3.11-.11-6.22-.17-9.32-2.77.04-5.55.08-8.32.13-.01-.69-.02-1.37-.03-2.06-1.17.01-2.34.02-3.51.03-.01-.72-.02-1.43-.03-2.15h-3.1c-.17-.3-.42-.68-.79-1.04-.76-.74-1.6-1.04-2.06-1.17l-.24-4.23c16.37-4.2,28.26-7.24,29.63-7.57.99-.24,1.68-.4,1.68-.4.69-.14,1.38-.3,2.08-.46.44-.1.89-.21,1.34-.31l1.25-.3c1.39-.34,2.79-.68,4.21-1.03,1.24-.32,2.49-.64,3.75-.96l2.23-.58c1.24-.33,2.49-.67,3.76-1.02,1.27-.34,2.61-.71,4.1-1.16.65-.18,1.29-.37,1.94-.55v.24s-2.03.58-2.03.58l.95,4.97.98-.51-.31,16.67h-24.67v8.38h-7.43v12.26h-3.66v10.7h-.3c-.3-4.69-.6-9.39-.9-14.08Z"/>
      </g>
    </g>
  </g>
</svg>